<?xml version="1.0" encoding="UTF-8" standalone="no"?>
<!DOCTYPE svg PUBLIC "-//W3C//DTD SVG 1.1//EN" "http://www.w3.org/Graphics/SVG/1.1/DTD/svg11.dtd">
<svg width="30px" height="30px" viewBox="0 0 100 100" version="1.1"
    xmlns="http://www.w3.org/2000/svg"
    xmlns:xlink="http://www.w3.org/1999/xlink" xml:space="preserve"
    xmlns:serif="http://www.serif.com/" style="fill-rule:evenodd;clip-rule:evenodd;stroke-linecap:round;stroke-linejoin:round;stroke-miterlimit:1.5;">
    <g id="Tow-Truck" serif:id="Tow Truck">
        <g transform="matrix(0.979164,0,0,0.979164,0.0688943,0.0588853)">
            <circle cx="51.3" cy="50.82" r="49.021" style="fill:rgb(169,199,248);stroke:black;stroke-width:2.04px;"/>
        </g>
        <g id="Tow-Truck1" serif:id="Tow Truck" transform="matrix(0.0682771,0,0,-0.0682771,15.4964,83.6631)">
            <path d="M77,902C68,892 60,881 60,878C60,875 123,796 200,704C304,578 340,528 340,508L340,480L540,480L540,514C540,546 527,560 330,730C214,829 114,913 107,916C99,918 86,912 77,902Z" style="fill-rule:nonzero;"/>
            <path d="M80,699C80,620 82,611 103,597C121,585 123,579 113,569C103,559 97,559 88,568C73,583 40,584 40,570C40,553 79,520 100,520C126,520 160,554 160,580C160,591 151,609 140,620C125,635 120,653 120,689C120,723 114,745 100,761L81,785L80,699Z" style="fill-rule:nonzero;"/>
            <path d="M600,720C581,701 580,687 580,470L580,240L620,240C653,240 662,236 669,218C687,172 728,145 780,145C832,145 873,172 891,218C897,234 908,240 930,240C947,240 969,249 981,261C1000,280 1001,291 998,410L995,538L955,596C933,628 897,674 874,697L833,740L727,740C633,740 618,738 600,720ZM927,566C945,540 960,514 960,509C960,503 914,501 853,502L745,505L742,549C737,618 740,621 821,618L893,615L927,566ZM835,315C885,266 850,180 780,180C739,180 700,219 700,260C700,301 739,340 780,340C799,340 820,331 835,315Z" style="fill-rule:nonzero;"/>
            <path d="M0,360C0,259 15,240 90,240C133,240 142,237 149,218C167,172 208,145 260,145C312,145 353,172 371,218C379,238 386,240 460,240L540,240L540,440L0,440L0,360ZM315,315C348,283 348,237 315,205C266,155 180,190 180,260C180,279 189,300 205,315C220,331 241,340 260,340C279,340 300,331 315,315Z" style="fill-rule:nonzero;"/>
        </g>
    </g>
</svg>
